<?xml version="1.0" encoding="UTF-8"?>
<svg width="262px" height="59px" viewBox="0 0 262 59" version="1.1" xmlns="http://www.w3.org/2000/svg" xmlns:xlink="http://www.w3.org/1999/xlink">
    <!-- Generator: Sketch 41 (35326) - http://www.bohemiancoding.com/sketch -->
    <title>Group 11</title>
    <desc>Created with Sketch.</desc>
    <defs></defs>
    <g id="Consumers" stroke="none" stroke-width="1" fill="none" fill-rule="evenodd">
        <g id="Desktop-HD" transform="translate(-825.000000, -849.000000)">
            <g id="Group-11" transform="translate(825.000000, 849.000000)">
                <g id="logo">
                    <g id="Group-7-Copy">
                        <g id="Consumers">
                            <g id="Desktop-HD">
                                <g id="Group-9">
                                    <g id="Group-7-Copy">
                                        <g id="Group" transform="translate(0.000000, 0.652174)">
                                            <path d="M19.1150423,33.7234865 C19.17568,33.4558718 19.051979,33.2367674 18.8381299,33.2355547 L11.7055126,33.2222143 C11.4912592,33.2222143 11.3772602,33.0059397 11.4480043,32.7447931 L20.4248178,0.0537654779 C18.0231584,0.247402049 15.7266044,0.817396965 13.6006447,1.71483577 C10.9479449,2.83825128 8.55841303,4.46213042 6.55211178,6.47085718 C4.54338501,8.47715844 2.91991013,10.8666903 1.79811162,13.5193901 C0.676717369,16.1741111 0.0549782331,19.0903829 0.0549782331,22.1525897 C0.0549782331,25.2147964 0.676717369,28.1318768 1.79811162,30.7857893 C2.14415109,31.602782 3.5865212,34.1709931 3.90790132,34.6423506 L14.8825268,52.1234075 L19.1150423,33.7234865" id="Fill-29" fill="#1BB933"></path>
                                            <path d="M42.6707897,13.5193901 C41.5477784,10.8666903 39.9243035,8.47715844 37.917598,6.47085718 C35.9088712,4.46213042 33.5209564,2.83825128 30.8670439,1.71483577 L30.7865978,1.68492114 L25.3199018,19.1223188 C25.2346047,19.3786144 25.3405187,19.5892295 25.5543678,19.5892295 L32.8074521,19.5892295 C33.020897,19.5892295 33.1029601,19.7836746 32.9905781,20.0201619 L16.5403631,54.7372991 C16.8027225,55.1520613 17.099039,55.5462067 17.4450785,55.8910334 C18.0583283,56.503879 18.7880027,57.0011087 19.5977188,57.3427014 C20.4082435,57.6875281 21.2996185,57.8734839 22.2338443,57.8734839 C23.1684742,57.8734839 24.059445,57.6875281 24.8699697,57.3427014 C25.6796859,57.0011087 26.410573,56.503879 27.0238228,55.8910334 C27.4341383,55.479101 27.7862415,55.0121902 28.0805368,54.5068756 L28.0870048,54.5068756 L40.5581702,34.6476059 C40.8823801,34.1709931 42.3247502,31.602782 42.6707897,30.7857893 C43.7921839,28.1318768 44.412306,25.2147964 44.412306,22.1525897 C44.412306,19.0903829 43.7921839,16.1741111 42.6707897,13.5193901" id="Fill-30" fill="#00AAFF"></path>
                                        </g>
                                    </g>
                                </g>
                            </g>
                        </g>
                    </g>
                </g>
                <g id="Group-10" transform="translate(61.000000, 15.000000)" fill="#ffffff">
                    <path d="M11.890625,22 L0.748046875,22 L0.748046875,2.01171875 L11.890625,2.01171875 L11.890625,4.07617188 L3.07226562,4.07617188 L3.07226562,10.515625 L11.3574219,10.515625 L11.3574219,12.5664062 L3.07226562,12.5664062 L3.07226562,19.921875 L11.890625,19.921875 L11.890625,22 Z M26.2324219,22 L26.2324219,12.3066406 C26.2324219,11.0852804 25.9544299,10.1738311 25.3984375,9.57226562 C24.8424451,8.97070012 23.9720111,8.66992188 22.7871094,8.66992188 C21.2193932,8.66992188 20.0709672,9.09374576 19.3417969,9.94140625 C18.6126266,10.7890667 18.2480469,12.1881413 18.2480469,14.1386719 L18.2480469,22 L15.9785156,22 L15.9785156,7.015625 L17.8242188,7.015625 L18.1933594,9.06640625 L18.3027344,9.06640625 C18.7675804,8.32812131 19.4192666,7.75618692 20.2578125,7.35058594 C21.0963584,6.94498495 22.0305938,6.7421875 23.0605469,6.7421875 C24.8652434,6.7421875 26.2233027,7.1774045 27.1347656,8.04785156 C28.0462285,8.91829862 28.5019531,10.3105373 28.5019531,12.2246094 L28.5019531,22 L26.2324219,22 Z M39.4941406,22.2734375 C37.2792858,22.2734375 35.5315819,21.5989651 34.2509766,20.25 C32.9703712,18.9010349 32.3300781,17.0280068 32.3300781,14.6308594 C32.3300781,12.2154827 32.9247987,10.2968821 34.1142578,8.875 C35.3037169,7.45311789 36.9010316,6.7421875 38.90625,6.7421875 C40.7838636,6.7421875 42.2695258,7.35969435 43.3632812,8.59472656 C44.4570367,9.82975878 45.0039062,11.4589743 45.0039062,13.4824219 L45.0039062,14.9179688 L34.6816406,14.9179688 C34.7272138,16.6770921 35.1715453,18.0123652 36.0146484,18.9238281 C36.8577516,19.835291 38.0449142,20.2910156 39.5761719,20.2910156 C41.1894612,20.2910156 42.7844973,19.9537794 44.3613281,19.2792969 L44.3613281,21.3027344 C43.5592408,21.6490903 42.8004593,21.8974602 42.0849609,22.0478516 C41.3694626,22.1982429 40.5058644,22.2734375 39.4941406,22.2734375 Z M38.8789062,8.64257812 C37.6757752,8.64257812 36.7164749,9.03450129 36.0009766,9.81835938 C35.2854782,10.6022175 34.8639329,11.686842 34.7363281,13.0722656 L42.5703125,13.0722656 C42.5703125,11.6412689 42.2513053,10.5452512 41.6132812,9.78417969 C40.9752572,9.02310817 40.063808,8.64257812 38.8789062,8.64257812 Z M55.7089844,6.7421875 C56.3743523,6.7421875 56.9713515,6.79687445 57.5,6.90625 L57.1855469,9.01171875 C56.5657521,8.87499932 56.0188826,8.80664062 55.5449219,8.80664062 C54.3326762,8.80664062 53.2959027,9.2988232 52.4345703,10.2832031 C51.5732379,11.267583 51.1425781,12.4934822 51.1425781,13.9609375 L51.1425781,22 L48.8730469,22 L48.8730469,7.015625 L50.7460937,7.015625 L51.0058594,9.79101562 L51.1152344,9.79101562 C51.6712267,8.81575033 52.3411419,8.06380473 53.125,7.53515625 C53.9088581,7.00650777 54.7701776,6.7421875 55.7089844,6.7421875 Z M72.2929688,7.015625 L72.2929688,8.45117188 L69.5175781,8.77929688 C69.7727877,9.09830889 70.00065,9.5152969 70.2011719,10.0302734 C70.4016937,10.54525 70.5019531,11.1262988 70.5019531,11.7734375 C70.5019531,13.2408928 70.0006561,14.412105 68.9980469,15.2871094 C67.9954377,16.1621137 66.6191494,16.5996094 64.8691406,16.5996094 C64.4225238,16.5996094 64.0032572,16.5631514 63.6113281,16.4902344 C62.6451775,17.0006536 62.1621094,17.6432253 62.1621094,18.4179688 C62.1621094,18.8281271 62.3307275,19.1311839 62.6679688,19.3271484 C63.00521,19.523113 63.5839803,19.6210938 64.4042969,19.6210938 L67.0566406,19.6210938 C68.6790446,19.6210938 69.9254514,19.9628872 70.7958984,20.6464844 C71.6663455,21.3300815 72.1015625,22.3235612 72.1015625,23.6269531 C72.1015625,25.2858156 71.4362046,26.5504514 70.1054688,27.4208984 C68.7747329,28.2913455 66.8333461,28.7265625 64.28125,28.7265625 C62.3216048,28.7265625 60.8108777,28.3619828 59.7490234,27.6328125 C58.6871692,26.9036422 58.15625,25.8737046 58.15625,24.5429688 C58.15625,23.6315059 58.4479137,22.8431023 59.03125,22.1777344 C59.6145863,21.5123665 60.4348905,21.0611991 61.4921875,20.8242188 C61.1093731,20.6510408 60.7880872,20.3821633 60.5283203,20.0175781 C60.2685534,19.652993 60.1386719,19.2291691 60.1386719,18.7460938 C60.1386719,18.199216 60.2845037,17.7207052 60.5761719,17.3105469 C60.86784,16.9003886 61.3281219,16.5039082 61.9570312,16.1210938 C61.1822878,15.8020817 60.5511092,15.2597695 60.0634766,14.4941406 C59.5758439,13.7285118 59.3320312,12.8535205 59.3320312,11.8691406 C59.3320312,10.2285074 59.8242138,8.96387163 60.8085938,8.07519531 C61.7929737,7.18651899 63.187491,6.7421875 64.9921875,6.7421875 C65.7760456,6.7421875 66.4824187,6.83333242 67.1113281,7.015625 L72.2929688,7.015625 Z M60.34375,24.515625 C60.34375,25.326827 60.6855435,25.9420552 61.3691406,26.3613281 C62.0527378,26.7806011 63.0325457,26.9902344 64.3085938,26.9902344 C66.2135512,26.9902344 67.6240189,26.7054065 68.5400391,26.1357422 C69.4560593,25.5660779 69.9140625,24.7936247 69.9140625,23.8183594 C69.9140625,23.0071574 69.663414,22.4443375 69.1621094,22.1298828 C68.6608048,21.8154281 67.7174548,21.6582031 66.3320312,21.6582031 L63.6113281,21.6582031 C62.5813751,21.6582031 61.7792997,21.9042944 61.2050781,22.3964844 C60.6308565,22.8886743 60.34375,23.5950475 60.34375,24.515625 Z M61.5742188,11.8144531 C61.5742188,12.8626354 61.8704397,13.6555963 62.4628906,14.1933594 C63.0553415,14.7311225 63.880203,15 64.9375,15 C67.1523548,15 68.2597656,13.9244899 68.2597656,11.7734375 C68.2597656,9.52212416 67.1386831,8.39648438 64.8964844,8.39648438 C63.8300728,8.39648438 63.0097685,8.68359088 62.4355469,9.2578125 C61.8613253,9.83203412 61.5742188,10.6842391 61.5742188,11.8144531 Z M72.9902344,7.015625 L75.4238281,7.015625 L78.7050781,15.5605469 C79.4251338,17.5110775 79.8717439,18.9192665 80.0449219,19.7851562 L80.1542969,19.7851562 C80.2727871,19.3203102 80.521157,18.5250707 80.8994141,17.3994141 C81.2776712,16.2737574 82.5149635,12.812529 84.6113281,7.015625 L87.0449219,7.015625 L80.6054688,24.078125 C79.9674447,25.7643313 79.222335,26.9606084 78.3701172,27.6669922 C77.5178994,28.3733759 76.4720114,28.7265625 75.2324219,28.7265625 C74.5397101,28.7265625 73.8561232,28.6490893 73.1816406,28.4941406 L73.1816406,26.6757812 C73.6829452,26.7851568 74.2434865,26.8398438 74.8632812,26.8398438 C76.4218828,26.8398438 77.5338508,25.9648525 78.1992188,24.2148438 L79.0332031,22.0820312 L72.9902344,7.015625 Z" id="Energy"></path>
                    <path d="M97.1307107,11.4200508 L98.4898477,11.4200508 C99.7601586,11.4200508 100.710657,11.1691015 101.341371,10.6671954 C101.972084,10.1652894 102.287437,9.43464947 102.287437,8.47525381 C102.287437,7.50697485 102.023163,6.79188048 101.494607,6.32994924 C100.966051,5.86801799 100.137696,5.63705584 99.0095178,5.63705584 L97.1307107,5.63705584 L97.1307107,11.4200508 Z M106.458122,8.3286802 C106.458122,10.4251374 105.802989,12.0285477 104.492703,13.1389594 C103.182417,14.249371 101.319175,14.8045685 98.9029188,14.8045685 L97.1307107,14.8045685 L97.1307107,21.7335025 L93,21.7335025 L93,2.25253807 L99.2227157,2.25253807 C101.585672,2.25253807 103.382291,2.76109898 104.612627,3.77823604 C105.842963,4.79537311 106.458122,6.31217266 106.458122,8.3286802 Z M118.356403,6.55647208 C118.907167,6.55647208 119.364649,6.5964463 119.728865,6.67639594 L119.422392,10.4873096 C119.093711,10.3984767 118.693968,10.3540609 118.223154,10.3540609 C116.926193,10.3540609 115.915734,10.6871794 115.191745,11.3534264 C114.467757,12.0196734 114.105768,12.9524052 114.105768,14.1516497 L114.105768,21.7335025 L110.041682,21.7335025 L110.041682,6.83629442 L113.119727,6.83629442 L113.719347,9.34137056 L113.91922,9.34137056 C114.381151,8.506341 115.005193,7.83344164 115.791365,7.32265228 C116.577536,6.81186293 117.43254,6.55647208 118.356403,6.55647208 Z M128.282602,9.44796954 C127.420923,9.44796954 126.745803,9.72112671 126.257221,10.2674492 C125.76864,10.8137718 125.488821,11.5888275 125.417754,12.5926396 L131.1208,12.5926396 C131.103033,11.5888275 130.84098,10.8137718 130.334633,10.2674492 C129.828285,9.72112671 129.144282,9.44796954 128.282602,9.44796954 Z M128.855572,22 C126.457083,22 124.582736,21.3382046 123.232475,20.0145939 C121.882215,18.6909832 121.207094,16.8166365 121.207094,14.3914975 C121.207094,11.8952921 121.831136,9.9654256 123.079239,8.6018401 C124.327342,7.2382546 126.052896,6.55647208 128.255952,6.55647208 C130.361293,6.55647208 132.000236,7.15608537 133.172831,8.35532995 C134.345425,9.55457452 134.931714,11.2112838 134.931714,13.3255076 L134.931714,15.2975888 L125.32448,15.2975888 C125.368897,16.4524169 125.710898,17.3540577 126.350496,18.0025381 C126.990093,18.6510185 127.887292,18.9752538 129.04212,18.9752538 C129.939332,18.9752538 130.787674,18.8819806 131.587171,18.6954315 C132.386667,18.5088823 133.221684,18.2112965 134.092247,17.802665 L134.092247,20.947335 C133.381583,21.3026668 132.622073,21.5669408 131.813693,21.740165 C131.005314,21.9133892 130.019283,22 128.855572,22 Z M151.800172,21.7335025 L147.736086,21.7335025 L147.736086,13.0323604 C147.736086,11.9574819 147.556202,11.1513352 147.196429,10.6138959 C146.836655,10.0764567 146.270354,9.80774112 145.497507,9.80774112 C144.458162,9.80774112 143.703093,10.189717 143.232279,10.9536802 C142.761464,11.7176434 142.526061,12.9746105 142.526061,14.7246193 L142.526061,21.7335025 L138.461974,21.7335025 L138.461974,6.83629442 L141.56667,6.83629442 L142.112989,8.74175127 L142.339512,8.74175127 C142.73926,8.0577377 143.316666,7.52252731 144.071746,7.13610406 C144.826826,6.74968081 145.692934,6.55647208 146.670096,6.55647208 C148.899803,6.55647208 150.40994,7.28489119 151.200553,8.74175127 L151.560324,8.74175127 C151.960073,8.0488544 152.548582,7.51142323 153.32587,7.12944162 C154.103158,6.74746002 154.98037,6.55647208 155.957533,6.55647208 C157.645358,6.55647208 158.922313,6.98952613 159.788434,7.85564721 C160.654555,8.72176829 161.087609,10.109762 161.087609,12.0196701 L161.087609,21.7335025 L157.010198,21.7335025 L157.010198,13.0323604 C157.010198,11.9574819 156.830314,11.1513352 156.47054,10.6138959 C156.110767,10.0764567 155.544465,9.80774112 154.771619,9.80774112 C153.77669,9.80774112 153.032725,10.1630675 152.539703,10.873731 C152.04668,11.5843944 151.800172,12.7125557 151.800172,14.2582487 L151.800172,21.7335025 Z M165.310763,2.98540609 C165.310763,1.66179541 166.048065,1 167.522692,1 C168.997318,1 169.73462,1.66179541 169.73462,2.98540609 C169.73462,3.6161199 169.550295,4.10691449 169.181638,4.45780457 C168.812982,4.80869465 168.260005,4.98413706 167.522692,4.98413706 C166.048065,4.98413706 165.310763,4.31790006 165.310763,2.98540609 Z M169.548072,21.7335025 L165.483986,21.7335025 L165.483986,6.83629442 L169.548072,6.83629442 L169.548072,21.7335025 Z M180.20714,9.44796954 C179.34546,9.44796954 178.67034,9.72112671 178.181759,10.2674492 C177.693178,10.8137718 177.413358,11.5888275 177.342292,12.5926396 L183.045338,12.5926396 C183.027571,11.5888275 182.765518,10.8137718 182.25917,10.2674492 C181.752823,9.72112671 181.068819,9.44796954 180.20714,9.44796954 Z M180.780109,22 C178.38162,22 176.507273,21.3382046 175.157013,20.0145939 C173.806752,18.6909832 173.131632,16.8166365 173.131632,14.3914975 C173.131632,11.8952921 173.755674,9.9654256 175.003777,8.6018401 C176.25188,7.2382546 177.977433,6.55647208 180.18049,6.55647208 C182.285831,6.55647208 183.924774,7.15608537 185.097368,8.35532995 C186.269963,9.55457452 186.856251,11.2112838 186.856251,13.3255076 L186.856251,15.2975888 L177.249018,15.2975888 C177.293434,16.4524169 177.635436,17.3540577 178.275033,18.0025381 C178.91463,18.6510185 179.811829,18.9752538 180.966658,18.9752538 C181.86387,18.9752538 182.712212,18.8819806 183.511708,18.6954315 C184.311205,18.5088823 185.146222,18.2112965 186.016784,17.802665 L186.016784,20.947335 C185.306121,21.3026668 184.546611,21.5669408 183.738231,21.740165 C182.929851,21.9133892 181.943821,22 180.780109,22 Z M198.701233,6.55647208 C199.251997,6.55647208 199.70948,6.5964463 200.073695,6.67639594 L199.767223,10.4873096 C199.438541,10.3984767 199.038799,10.3540609 198.567984,10.3540609 C197.271023,10.3540609 196.260564,10.6871794 195.536575,11.3534264 C194.812587,12.0196734 194.450598,12.9524052 194.450598,14.1516497 L194.450598,21.7335025 L190.386512,21.7335025 L190.386512,6.83629442 L193.464558,6.83629442 L194.064177,9.34137056 L194.26405,9.34137056 C194.725981,8.506341 195.350023,7.83344164 196.136195,7.32265228 C196.922366,6.81186293 197.77737,6.55647208 198.701233,6.55647208 Z" id="Premier"></path>
                </g>
            </g>
        </g>
    </g>
</svg>
